<svg width="124" height="50" viewBox="0 0 124 50" fill="none" xmlns="http://www.w3.org/2000/svg">
<g clip-path="url(#clip0)">
<path d="M36.9803 18.7501C32.7699 18.5927 28.5538 18.7859 24.3755 19.3278C26.5997 15.9675 29.1614 12.8431 32.0207 10.0035C35.8282 6.2197 40.0681 3.00687 45.1728 1.13187C46.5911 0.554345 48.083 0.177974 49.6053 0.013647C50.8411 -0.0803919 52.064 0.314314 53.012 1.1129C53.9597 1.91148 54.5559 3.05015 54.6728 4.28392C54.6728 4.64429 54.6728 5.00463 54.6728 5.365C54.2978 7.07784 53.9397 8.79068 53.5478 10.5001C52.5049 15.0317 51.4542 19.5609 50.3958 24.088C50.3113 24.4562 50.5107 24.8616 50.2336 25.1994C50.3992 22.1217 48.2708 19.9089 45.2573 19.6454C43.8688 19.5238 42.4904 19.267 41.1053 19.0711C41.3238 18.945 41.5086 18.7679 41.6438 18.555C41.7792 18.342 41.861 18.0995 41.8823 17.8481C42.1728 16.4258 42.558 15.0204 42.8654 13.5001C42.1846 13.9287 41.5499 14.4257 40.9701 14.9832C39.7221 15.996 38.5688 17.12 37.5242 18.3414C37.3566 18.4952 37.1745 18.6321 36.9803 18.7501Z" fill="#606161"/>
<path d="M50.3956 25.0067C50.1557 26.1317 49.8145 27.7736 49.453 29.3986C48.2706 34.7454 47.0834 40.091 45.8922 45.4356C45.1321 48.814 42.3551 50.4593 39.0409 49.4458C27.2615 45.8424 15.4856 42.2241 3.71311 38.591C0.0779655 37.466 -1.13491 33.4527 1.18604 30.4155C4.00024 26.7398 7.72659 24.2837 11.909 22.4662C18.757 19.4898 25.9867 18.4526 33.3955 18.4121C37.5078 18.4212 41.6135 18.7465 45.676 19.3851C48.5206 19.8141 50.3956 21.8141 50.3956 25.0067ZM39.1861 28.8243C31.2705 28.2128 23.5881 28.6959 16.2131 31.8209L37.1152 38.2397L39.1861 28.8243Z" fill="#BE2328"/>
<path d="M65.4863 25.9125H61.8968V32.0945H59.8711V16.8128H64.9302C66.6515 16.8128 67.9738 17.2046 68.8974 17.9883C69.8282 18.772 70.2934 19.9125 70.2934 21.4099C70.2934 22.3615 70.0346 23.1906 69.5167 23.8974C69.0059 24.6041 68.292 25.1323 67.3755 25.4822L70.965 31.9685V32.0945H68.8029L65.4863 25.9125ZM61.8968 24.2647H64.9931C65.9937 24.2647 66.788 24.0058 67.3755 23.488C67.9704 22.9702 68.2677 22.2775 68.2677 21.4099C68.2677 20.4653 67.9843 19.7411 67.4177 19.2373C66.8579 18.7335 66.0461 18.4781 64.9826 18.4711H61.8968V24.2647ZM79.8339 30.9714C79.0782 31.8601 77.9691 32.3044 76.5069 32.3044C75.2964 32.3044 74.3728 31.9545 73.736 31.2548C73.1062 30.5481 72.788 29.5055 72.7809 28.1271V20.7381H74.7224V28.0746C74.7224 29.7959 75.4221 30.6566 76.8218 30.6566C78.3052 30.6566 79.2917 30.1038 79.7816 28.9982V20.7381H81.7231V32.0945H79.8758L79.8339 30.9714ZM94.2971 26.5423C94.2971 28.2775 93.8981 29.6734 93.1005 30.73C92.3029 31.7796 91.2323 32.3044 89.8887 32.3044C88.4542 32.3044 87.3454 31.7971 86.5616 30.7825L86.467 32.0945H84.6829V15.9731H86.6245V21.9871C87.4083 21.0145 88.4893 20.5282 89.8677 20.5282C91.2461 20.5282 92.3272 21.0495 93.111 22.0921C93.9015 23.1347 94.2971 24.5621 94.2971 26.3743V26.5423ZM92.3552 26.3219C92.3552 24.9994 92.0998 23.9778 91.589 23.2571C91.0782 22.5364 90.3437 22.1761 89.3849 22.1761C88.1045 22.1761 87.1843 22.7708 86.6245 23.9603V28.8723C87.2194 30.0618 88.1464 30.6566 89.4059 30.6566C90.3366 30.6566 91.0606 30.2962 91.5785 29.5755C92.0964 28.8548 92.3552 27.7702 92.3552 26.3219ZM98.8627 32.0945H96.9208V20.7381H98.8627V32.0945ZM96.7633 17.7259C96.7633 17.4111 96.8579 17.1451 97.0468 16.9282C97.2427 16.7113 97.5295 16.6029 97.9076 16.6029C98.2853 16.6029 98.5721 16.7113 98.7681 16.9282C98.964 17.1451 99.062 17.4111 99.062 17.7259C99.062 18.0408 98.964 18.3032 98.7681 18.5131C98.5721 18.723 98.2853 18.8279 97.9076 18.8279C97.5295 18.8279 97.2427 18.723 97.0468 18.5131C96.8579 18.3032 96.7633 18.0408 96.7633 17.7259ZM106.692 32.3044C105.153 32.3044 103.9 31.8006 102.935 30.793C101.969 29.7784 101.487 28.4245 101.487 26.7312V26.3743C101.487 25.2478 101.7 24.2437 102.127 23.3621C102.561 22.4734 103.162 21.7807 103.932 21.2839C104.709 20.7801 105.548 20.5282 106.451 20.5282C107.927 20.5282 109.075 21.0145 109.893 21.9871C110.712 22.9597 111.121 24.3522 111.121 26.1644V26.9726H103.428C103.456 28.0921 103.782 28.9982 104.404 29.6909C105.034 30.3767 105.832 30.7195 106.797 30.7195C107.483 30.7195 108.064 30.5796 108.54 30.2997C109.015 30.0198 109.432 29.649 109.789 29.1872L110.974 30.1108C110.023 31.5732 108.595 32.3044 106.692 32.3044ZM106.451 22.1236C105.667 22.1236 105.01 22.4105 104.478 22.9842C103.946 23.551 103.617 24.3486 103.491 25.3772H109.18V25.2303C109.124 24.2437 108.858 23.481 108.382 22.9422C107.906 22.3965 107.263 22.1236 106.451 22.1236ZM119.99 29.0822C119.99 28.5574 119.791 28.1516 119.392 27.8647C119 27.5708 118.311 27.3189 117.324 27.109C116.345 26.8991 115.565 26.6472 114.984 26.3533C114.41 26.0595 113.983 25.7096 113.704 25.3038C113.431 24.8979 113.294 24.4151 113.294 23.8554C113.294 22.9248 113.686 22.1376 114.47 21.4939C115.26 20.8501 116.268 20.5282 117.492 20.5282C118.78 20.5282 119.822 20.8606 120.62 21.5253C121.425 22.1901 121.827 23.0402 121.827 24.0758H119.875C119.875 23.544 119.647 23.0857 119.193 22.7008C118.745 22.316 118.178 22.1236 117.492 22.1236C116.786 22.1236 116.233 22.2775 115.834 22.5854C115.435 22.8933 115.236 23.2956 115.236 23.7924C115.236 24.2612 115.421 24.6146 115.792 24.8525C116.163 25.0904 116.831 25.3178 117.797 25.5347C118.769 25.7516 119.557 26.0105 120.158 26.3114C120.76 26.6122 121.204 26.9761 121.491 27.4029C121.785 27.8227 121.932 28.337 121.932 28.9458C121.932 29.9603 121.526 30.7755 120.715 31.3913C119.903 32 118.85 32.3044 117.555 32.3044C116.646 32.3044 115.841 32.1434 115.141 31.8216C114.442 31.4997 113.892 31.0519 113.493 30.4781C113.102 29.8974 112.906 29.2711 112.906 28.5994H114.847C114.883 29.2501 115.141 29.7679 115.624 30.1528C116.114 30.5306 116.758 30.7195 117.555 30.7195C118.29 30.7195 118.878 30.5726 119.319 30.2787C119.766 29.9778 119.99 29.579 119.99 29.0822Z" fill="#616262"/>
</g>
<defs>
<clipPath id="clip0">
<rect width="123.311" height="50" fill="white"/>
</clipPath>
</defs>
</svg>
