<svg width="100" height="100" viewBox="0 0 100 100" fill="none" xmlns="http://www.w3.org/2000/svg">
<circle cx="50" cy="50" r="50" fill="#EBEBEB"/>
<path fill-rule="evenodd" clip-rule="evenodd" d="M33.8307 30.3099C34.279 29.8616 34.8174 29.5137 35.4103 29.2894C36.0032 29.065 36.637 28.9693 37.2697 29.0086C37.9024 29.0479 38.5195 29.2213 39.0801 29.5173C39.6406 29.8133 40.1319 30.2251 40.5212 30.7254L45.1155 36.635C45.96 37.7174 46.2579 39.1305 45.9244 40.4617L44.5224 46.0733C44.4495 46.3645 44.4532 46.6696 44.5332 46.9589C44.6132 47.2482 44.7667 47.5119 44.9788 47.7243L51.2757 54.0192C51.488 54.2314 51.7517 54.3849 52.041 54.4649C52.3303 54.5449 52.6353 54.5486 52.9265 54.4757L58.5347 53.0735C59.1925 52.9092 59.879 52.8966 60.5424 53.0368C61.2057 53.177 61.8285 53.4662 62.3636 53.8826L68.2725 58.4774C70.396 60.1283 70.5928 63.269 68.6906 65.1687L66.0396 67.82C64.1456 69.7143 61.3114 70.5479 58.6686 69.6186C51.9082 67.2388 45.7702 63.3674 40.7098 58.2915C35.6336 53.2308 31.7617 47.092 29.3814 40.3305C28.4521 37.6873 29.2857 34.8528 31.1797 32.9558L33.8307 30.3072V30.3099Z" fill="#333333"/>
</svg>
