<svg width="90" height="106" viewBox="0 0 90 106" fill="none" xmlns="http://www.w3.org/2000/svg">
<path fill-rule="evenodd" clip-rule="evenodd" d="M45.1363 105.532C57.9139 93.8428 59.5924 78.3689 45.972 71.5203C33.3239 65.1644 14.4701 60.0286 12.7188 40.7444C21.2871 55.4663 37.2018 57.5836 48.6823 63.3918C55.8129 67.0035 61.6891 73.2661 61.9459 84.6921C70.1235 70.0769 62.5342 60.3002 55.2336 55.0348C41.526 45.1402 14.8272 42.3937 8.70901 0C-2.36253 21.4571 -4.98413 50.8079 13.4452 65.7799C27.2858 76.9106 48.8815 77.5919 46.9801 88.0207C40.3506 81.2741 28.4122 91.5142 17.3951 77.8623C19.9802 109.385 48.8403 82.1032 45.1363 105.532Z" fill="#043927"/>
<path fill-rule="evenodd" clip-rule="evenodd" d="M77.2185 48.2952C75.8568 52.6633 75.9035 51.5891 70.6105 50.8631L77.2185 48.2952ZM58.0853 51.8047C69.7817 57.9244 70.1078 69.6115 69.5386 73.3233C71.3151 70.4748 84.281 46.4097 89.3737 49.1722C88.0508 43.4138 83.2971 44.881 81.2097 45.9039C76.2715 41.628 70.2315 46.6257 58.0853 51.8047Z" fill="#DA04F2"/>
</svg>
