<svg width="100" height="100" viewBox="0 0 100 100" fill="none" xmlns="http://www.w3.org/2000/svg">
<circle cx="50" cy="50" r="50" fill="#FAD7FE"/>
<path fill-rule="evenodd" clip-rule="evenodd" d="M49.9952 60.2876C46.3857 60.2876 42.7185 58.1399 40.5783 55.2972C30.3104 55.2972 30 69.9999 30 69.9999H69.9879C69.9879 69.9999 70.7939 55.2319 59.2469 55.2319C57.1092 58.1098 53.6048 60.2876 49.9952 60.2876Z" fill="#DA04F2"/>
<path fill-rule="evenodd" clip-rule="evenodd" d="M58.596 42.6624C58.596 46.8926 54.7436 54.9816 49.9877 54.9816C45.2392 54.9816 41.3843 46.8901 41.3843 42.6624C41.3843 38.4347 45.2367 35.0024 49.9877 35.0024C54.7436 35.005 58.596 38.4373 58.596 42.6624Z" fill="#DA04F2"/>
<path fill-rule="evenodd" clip-rule="evenodd" d="M62.4346 39.0123C62.4346 38.2195 61.3332 37.5797 59.9665 37.5747V35.9413C59.9665 35.6979 60.0591 30 50.0164 30C39.9788 30 40.0714 35.6979 40.0714 35.9413V37.6324C40.0464 37.6324 40.0263 37.6248 40.0038 37.6248C38.6446 37.6248 37.5507 38.2546 37.5507 39.0349V45.9447C37.5507 46.7199 38.6471 47.3522 40.0038 47.3522C41.3605 47.3522 42.4619 46.7199 42.4619 45.9447V39.0349C42.4619 38.927 42.3943 38.8292 42.3543 38.7288V36.8445C42.3543 36.6714 41.6334 32.371 50.0164 32.371C58.402 32.371 57.5309 36.6714 57.5309 36.8445V38.8292C57.5159 38.8919 57.4683 38.9471 57.4683 39.0123V46.0801C57.4683 46.8755 58.5772 47.5203 59.9515 47.5203C59.9815 47.5203 60.004 47.5103 60.0341 47.5103V50.092H57.571V52.5258H62.4596L62.4346 39.0123Z" fill="#DA04F2"/>
</svg>
