<svg width="128" height="88" viewBox="0 0 128 88" fill="none" xmlns="http://www.w3.org/2000/svg">
<path d="M4.88 70.739H0.08V68.999H11.66V70.739H6.86V82.999H4.88V70.739ZM22.0445 77.759C22.0445 77.9057 22.0312 78.099 22.0045 78.339H13.4045C13.5245 79.2724 13.9312 80.0257 14.6245 80.599C15.3312 81.159 16.2045 81.439 17.2445 81.439C18.5112 81.439 19.5312 81.0124 20.3045 80.159L21.3645 81.399C20.8845 81.959 20.2845 82.3857 19.5645 82.679C18.8579 82.9724 18.0645 83.119 17.1845 83.119C16.0645 83.119 15.0712 82.8924 14.2045 82.439C13.3379 81.9724 12.6645 81.3257 12.1845 80.499C11.7179 79.6724 11.4845 78.739 11.4845 77.699C11.4845 76.6724 11.7112 75.7457 12.1645 74.919C12.6312 74.0924 13.2645 73.4524 14.0645 72.999C14.8779 72.5324 15.7912 72.299 16.8045 72.299C17.8179 72.299 18.7179 72.5324 19.5045 72.999C20.3045 73.4524 20.9245 74.0924 21.3645 74.919C21.8179 75.7457 22.0445 76.6924 22.0445 77.759ZM16.8045 73.919C15.8845 73.919 15.1112 74.199 14.4845 74.759C13.8712 75.319 13.5112 76.0524 13.4045 76.959H20.2045C20.0979 76.0657 19.7312 75.339 19.1045 74.779C18.4912 74.2057 17.7245 73.919 16.8045 73.919ZM28.8306 78.059L26.6306 80.099V82.999H24.7106V68.159H26.6306V77.679L32.4106 72.399H34.7306L30.2706 76.779L35.1706 82.999H32.8106L28.8306 78.059ZM37.0348 68.159H38.9548V82.999H37.0348V68.159ZM46.4808 72.299C47.9474 72.299 49.0674 72.659 49.8408 73.379C50.6274 74.099 51.0208 75.1724 51.0208 76.599V82.999H49.2008V81.599C48.8808 82.0924 48.4208 82.4724 47.8208 82.739C47.2341 82.9924 46.5341 83.119 45.7208 83.119C44.5341 83.119 43.5808 82.8324 42.8608 82.259C42.1541 81.6857 41.8008 80.9324 41.8008 79.999C41.8008 79.0657 42.1408 78.319 42.8208 77.759C43.5008 77.1857 44.5808 76.899 46.0608 76.899H49.1008V76.519C49.1008 75.6924 48.8608 75.059 48.3808 74.619C47.9008 74.179 47.1941 73.959 46.2608 73.959C45.6341 73.959 45.0208 74.0657 44.4208 74.279C43.8208 74.479 43.3141 74.7524 42.9008 75.099L42.1008 73.659C42.6474 73.219 43.3008 72.8857 44.0608 72.659C44.8208 72.419 45.6274 72.299 46.4808 72.299ZM46.0408 81.639C46.7741 81.639 47.4074 81.479 47.9408 81.159C48.4741 80.8257 48.8608 80.359 49.1008 79.759V78.279H46.1408C44.5141 78.279 43.7008 78.8257 43.7008 79.919C43.7008 80.4524 43.9074 80.8724 44.3208 81.179C44.7341 81.4857 45.3074 81.639 46.0408 81.639ZM60.1939 72.299C61.2206 72.299 62.1406 72.5257 62.9539 72.979C63.7672 73.4324 64.4006 74.0657 64.8539 74.879C65.3206 75.6924 65.5539 76.6324 65.5539 77.699C65.5539 78.7657 65.3206 79.7124 64.8539 80.539C64.4006 81.3524 63.7672 81.9857 62.9539 82.439C62.1406 82.8924 61.2206 83.119 60.1939 83.119C59.4072 83.119 58.6872 82.9657 58.0339 82.659C57.3806 82.3524 56.8406 81.9057 56.4139 81.319V82.999H54.5739V68.159H56.4939V73.999C56.9206 73.439 57.4539 73.019 58.0939 72.739C58.7339 72.4457 59.4339 72.299 60.1939 72.299ZM60.0339 81.439C60.7139 81.439 61.3206 81.2857 61.8539 80.979C62.4006 80.659 62.8272 80.219 63.1339 79.659C63.4539 79.0857 63.6139 78.4324 63.6139 77.699C63.6139 76.9657 63.4539 76.319 63.1339 75.759C62.8272 75.1857 62.4006 74.7457 61.8539 74.439C61.3206 74.1324 60.7139 73.979 60.0339 73.979C59.3672 73.979 58.7606 74.1324 58.2139 74.439C57.6672 74.7457 57.2406 75.1857 56.9339 75.759C56.6272 76.319 56.4739 76.9657 56.4739 77.699C56.4739 78.4324 56.6272 79.0857 56.9339 79.659C57.2406 80.219 57.6672 80.659 58.2139 80.979C58.7606 81.2857 59.3672 81.439 60.0339 81.439ZM72.5667 83.159C71.5134 83.159 70.4934 82.999 69.5067 82.679C68.5334 82.3457 67.7667 81.919 67.2067 81.399L67.9467 79.839C68.4801 80.319 69.1601 80.7124 69.9867 81.019C70.8267 81.3124 71.6867 81.459 72.5667 81.459C73.7267 81.459 74.5934 81.2657 75.1667 80.879C75.7401 80.479 76.0267 79.9524 76.0267 79.299C76.0267 78.819 75.8667 78.4324 75.5467 78.139C75.2401 77.8324 74.8534 77.599 74.3867 77.439C73.9334 77.279 73.2867 77.099 72.4467 76.899C71.3934 76.6457 70.5401 76.3924 69.8867 76.139C69.2467 75.8857 68.6934 75.499 68.2267 74.979C67.7734 74.4457 67.5467 73.7324 67.5467 72.839C67.5467 72.0924 67.7401 71.419 68.1267 70.819C68.5267 70.219 69.1267 69.739 69.9267 69.379C70.7267 69.019 71.7201 68.839 72.9067 68.839C73.7334 68.839 74.5467 68.9457 75.3467 69.159C76.1467 69.3724 76.8334 69.679 77.4067 70.079L76.7467 71.679C76.1601 71.3057 75.5334 71.0257 74.8667 70.839C74.2001 70.639 73.5467 70.539 72.9067 70.539C71.7734 70.539 70.9201 70.7457 70.3467 71.159C69.7867 71.5724 69.5067 72.1057 69.5067 72.759C69.5067 73.239 69.6667 73.6324 69.9867 73.939C70.3067 74.2324 70.7001 74.4657 71.1667 74.639C71.6467 74.799 72.2934 74.9724 73.1067 75.159C74.1601 75.4124 75.0067 75.6657 75.6467 75.919C76.2867 76.1724 76.8334 76.559 77.2867 77.079C77.7534 77.599 77.9867 78.299 77.9867 79.179C77.9867 79.9124 77.7867 80.5857 77.3867 81.199C76.9867 81.799 76.3801 82.279 75.5667 82.639C74.7534 82.9857 73.7534 83.159 72.5667 83.159ZM86.2486 72.299C87.2753 72.299 88.1953 72.5257 89.0086 72.979C89.8219 73.4324 90.4553 74.0657 90.9086 74.879C91.3753 75.6924 91.6086 76.6324 91.6086 77.699C91.6086 78.7657 91.3753 79.7124 90.9086 80.539C90.4553 81.3524 89.8219 81.9857 89.0086 82.439C88.1953 82.8924 87.2753 83.119 86.2486 83.119C85.4886 83.119 84.7886 82.9724 84.1486 82.679C83.5219 82.3857 82.9886 81.959 82.5486 81.399V86.879H80.6286V72.399H82.4686V74.079C82.8953 73.4924 83.4353 73.0524 84.0886 72.759C84.7419 72.4524 85.4619 72.299 86.2486 72.299ZM86.0886 81.439C86.7686 81.439 87.3753 81.2857 87.9086 80.979C88.4553 80.659 88.8819 80.219 89.1886 79.659C89.5086 79.0857 89.6686 78.4324 89.6686 77.699C89.6686 76.9657 89.5086 76.319 89.1886 75.759C88.8819 75.1857 88.4553 74.7457 87.9086 74.439C87.3753 74.1324 86.7686 73.979 86.0886 73.979C85.4219 73.979 84.8153 74.139 84.2686 74.459C83.7353 74.7657 83.3086 75.199 82.9886 75.759C82.6819 76.319 82.5286 76.9657 82.5286 77.699C82.5286 78.4324 82.6819 79.0857 82.9886 79.659C83.2953 80.219 83.7219 80.659 84.2686 80.979C84.8153 81.2857 85.4219 81.439 86.0886 81.439ZM98.0238 72.299C99.4904 72.299 100.61 72.659 101.384 73.379C102.17 74.099 102.564 75.1724 102.564 76.599V82.999H100.744V81.599C100.424 82.0924 99.9638 82.4724 99.3638 82.739C98.7771 82.9924 98.0771 83.119 97.2638 83.119C96.0771 83.119 95.1238 82.8324 94.4038 82.259C93.6971 81.6857 93.3438 80.9324 93.3438 79.999C93.3438 79.0657 93.6838 78.319 94.3638 77.759C95.0438 77.1857 96.1238 76.899 97.6038 76.899H100.644V76.519C100.644 75.6924 100.404 75.059 99.9238 74.619C99.4438 74.179 98.7371 73.959 97.8038 73.959C97.1771 73.959 96.5638 74.0657 95.9638 74.279C95.3638 74.479 94.8571 74.7524 94.4438 75.099L93.6438 73.659C94.1904 73.219 94.8438 72.8857 95.6038 72.659C96.3638 72.419 97.1704 72.299 98.0238 72.299ZM97.5838 81.639C98.3171 81.639 98.9504 81.479 99.4838 81.159C100.017 80.8257 100.404 80.359 100.644 79.759V78.279H97.6838C96.0571 78.279 95.2438 78.8257 95.2438 79.919C95.2438 80.4524 95.4504 80.8724 95.8638 81.179C96.2771 81.4857 96.8504 81.639 97.5838 81.639ZM110.795 83.119C109.715 83.119 108.749 82.8857 107.895 82.419C107.055 81.9524 106.395 81.3124 105.915 80.499C105.435 79.6724 105.195 78.739 105.195 77.699C105.195 76.659 105.435 75.7324 105.915 74.919C106.395 74.0924 107.055 73.4524 107.895 72.999C108.749 72.5324 109.715 72.299 110.795 72.299C111.755 72.299 112.609 72.4924 113.355 72.879C114.115 73.2657 114.702 73.8257 115.115 74.559L113.655 75.499C113.322 74.9924 112.909 74.6124 112.415 74.359C111.922 74.1057 111.375 73.979 110.775 73.979C110.082 73.979 109.455 74.1324 108.895 74.439C108.349 74.7457 107.915 75.1857 107.595 75.759C107.289 76.319 107.135 76.9657 107.135 77.699C107.135 78.4457 107.289 79.1057 107.595 79.679C107.915 80.239 108.349 80.6724 108.895 80.979C109.455 81.2857 110.082 81.439 110.775 81.439C111.375 81.439 111.922 81.3124 112.415 81.059C112.909 80.8057 113.322 80.4257 113.655 79.919L115.115 80.839C114.702 81.5724 114.115 82.139 113.355 82.539C112.609 82.9257 111.755 83.119 110.795 83.119ZM127.025 77.759C127.025 77.9057 127.012 78.099 126.985 78.339H118.385C118.505 79.2724 118.912 80.0257 119.605 80.599C120.312 81.159 121.185 81.439 122.225 81.439C123.492 81.439 124.512 81.0124 125.285 80.159L126.345 81.399C125.865 81.959 125.265 82.3857 124.545 82.679C123.838 82.9724 123.045 83.119 122.165 83.119C121.045 83.119 120.052 82.8924 119.185 82.439C118.318 81.9724 117.645 81.3257 117.165 80.499C116.698 79.6724 116.465 78.739 116.465 77.699C116.465 76.6724 116.692 75.7457 117.145 74.919C117.612 74.0924 118.245 73.4524 119.045 72.999C119.858 72.5324 120.772 72.299 121.785 72.299C122.798 72.299 123.698 72.5324 124.485 72.999C125.285 73.4524 125.905 74.0924 126.345 74.919C126.798 75.7457 127.025 76.6924 127.025 77.759ZM121.785 73.919C120.865 73.919 120.092 74.199 119.465 74.759C118.852 75.319 118.492 76.0524 118.385 76.959H125.185C125.078 76.0657 124.712 75.339 124.085 74.779C123.472 74.2057 122.705 73.919 121.785 73.919Z" fill="#043927"/>
<path fill-rule="evenodd" clip-rule="evenodd" d="M64.5236 58.6219C71.1829 52.1984 72.0576 43.6953 64.9591 39.932C58.3674 36.4394 48.5413 33.6172 47.6286 23.0203C52.0941 31.1102 60.3884 32.2737 66.3717 35.4653C70.0879 37.45 73.1504 40.8913 73.2842 47.17C77.5461 39.1388 73.5908 33.7664 69.786 30.873C62.642 25.4359 48.7275 23.9266 45.5389 0.630859C39.7687 12.4218 38.4024 28.5503 48.0072 36.7776C55.2205 42.894 66.4755 43.2684 65.4845 48.9991C62.0295 45.2918 55.8075 50.9188 50.0658 43.417C51.413 60.7389 66.454 45.7474 64.5236 58.6219Z" fill="#043927"/>
<path fill-rule="evenodd" clip-rule="evenodd" d="M81.2441 27.1692C80.5344 29.5695 80.5587 28.9792 77.8002 28.5803L81.2441 27.1692ZM71.2725 29.0977C77.3683 32.4605 77.5382 38.8827 77.2415 40.9224C78.1674 39.3571 84.9248 26.1331 87.5789 27.6511C86.8895 24.4868 84.412 25.2931 83.3241 25.8552C80.7505 23.5055 77.6027 26.2518 71.2725 29.0977Z" fill="#DA04F2"/>
</svg>
