<svg width="100" height="100" viewBox="0 0 100 100" fill="none" xmlns="http://www.w3.org/2000/svg">
<circle cx="50" cy="50" r="50" fill="#DEF8E3"/>
<path d="M38.4089 40.1663C37.2729 40.1663 36.1624 39.8294 35.2178 39.1983C34.2732 38.5671 33.537 37.6701 33.1023 36.6205C32.6675 35.571 32.5538 34.4161 32.7754 33.3019C32.9971 32.1877 33.5441 31.1642 34.3474 30.3609C35.1507 29.5576 36.1741 29.0106 37.2883 28.789C38.4025 28.5673 39.5574 28.6811 40.607 29.1158C41.6565 29.5506 42.5536 30.2868 43.1847 31.2313C43.8159 32.1759 44.1527 33.2864 44.1527 34.4224C44.1527 35.9458 43.5476 37.4068 42.4704 38.4839C41.3932 39.5611 39.9323 40.1663 38.4089 40.1663ZM38.4089 31.5505C37.8409 31.5505 37.2856 31.7189 36.8133 32.0345C36.3411 32.3501 35.973 32.7986 35.7556 33.3234C35.5382 33.8482 35.4813 34.4256 35.5922 34.9827C35.703 35.5398 35.9765 36.0515 36.3781 36.4532C36.7798 36.8548 37.2915 37.1284 37.8486 37.2392C38.4057 37.35 38.9832 37.2931 39.5079 37.0757C40.0327 36.8584 40.4812 36.4903 40.7968 36.018C41.1124 35.5457 41.2808 34.9904 41.2808 34.4224C41.2808 33.6608 40.9782 32.9303 40.4397 32.3917C39.9011 31.8531 39.1706 31.5505 38.4089 31.5505Z" fill="#21963B"/>
<path d="M61.3842 40.1663C60.2482 40.1663 59.1377 39.8294 58.1931 39.1983C57.2485 38.5671 56.5123 37.6701 56.0776 36.6205C55.6429 35.571 55.5291 34.4161 55.7507 33.3019C55.9724 32.1877 56.5194 31.1642 57.3227 30.3609C58.126 29.5576 59.1495 29.0106 60.2636 28.789C61.3778 28.5673 62.5327 28.6811 63.5823 29.1158C64.6318 29.5506 65.5289 30.2868 66.16 31.2313C66.7912 32.1759 67.1281 33.2864 67.1281 34.4224C67.1281 35.9458 66.5229 37.4068 65.4457 38.4839C64.3685 39.5611 62.9076 40.1663 61.3842 40.1663ZM61.3842 31.5505C60.8162 31.5505 60.2609 31.7189 59.7887 32.0345C59.3164 32.3501 58.9483 32.7986 58.7309 33.3234C58.5135 33.8482 58.4567 34.4256 58.5675 34.9827C58.6783 35.5398 58.9518 36.0515 59.3535 36.4532C59.7551 36.8548 60.2668 37.1284 60.8239 37.2392C61.381 37.35 61.9585 37.2931 62.4833 37.0757C63.008 36.8584 63.4566 36.4903 63.7721 36.018C64.0877 35.5457 64.2561 34.9904 64.2561 34.4224C64.2561 33.6608 63.9536 32.9303 63.415 32.3917C62.8764 31.8531 62.1459 31.5505 61.3842 31.5505Z" fill="#21963B"/>
<path d="M64.2562 70.3214H58.5123C57.7506 70.3214 57.0202 70.0188 56.4816 69.4802C55.943 68.9416 55.6404 68.2111 55.6404 67.4495V57.3977H58.5123V67.4495H64.2562V54.5258H67.1281V45.9101C67.1281 45.5292 66.9768 45.164 66.7075 44.8947C66.4382 44.6254 66.073 44.4741 65.6921 44.4741H56.4733L49.8966 55.9618L43.3199 44.4741H34.101C33.7201 44.4741 33.3549 44.6254 33.0856 44.8947C32.8163 45.164 32.665 45.5292 32.665 45.9101V54.5258H35.5369V67.4495H41.2808V57.3977H44.1527V67.4495C44.1527 68.2111 43.8501 68.9416 43.3115 69.4802C42.773 70.0188 42.0425 70.3214 41.2808 70.3214H35.5369C34.7753 70.3214 34.0448 70.0188 33.5062 69.4802C32.9676 68.9416 32.665 68.2111 32.665 67.4495V57.3977C31.9033 57.3977 31.1729 57.0952 30.6343 56.5566C30.0957 56.018 29.7931 55.2875 29.7931 54.5258V45.9101C29.7931 44.7675 30.247 43.6718 31.0549 42.8639C31.8627 42.056 32.9585 41.6022 34.101 41.6022H44.9856L49.8966 50.2179L54.8075 41.6022H65.6921C66.8346 41.6022 67.9304 42.056 68.7383 42.8639C69.5461 43.6718 70 44.7675 70 45.9101V54.5258C70 55.2875 69.6974 56.018 69.1588 56.5566C68.6202 57.0952 67.8898 57.3977 67.1281 57.3977V67.4495C67.1281 68.2111 66.8255 68.9416 66.2869 69.4802C65.7483 70.0188 65.0178 70.3214 64.2562 70.3214Z" fill="#21963B"/>
</svg>
