<svg width="100" height="100" viewBox="0 0 100 100" fill="none" xmlns="http://www.w3.org/2000/svg">
<circle cx="50" cy="50" r="50" fill="#DEF8E3"/>
<path d="M69.7918 33.3333H65.2779V36.111H69.4446V66.6666H30.5557V36.111H34.7224V33.3333H30.2085C29.8838 33.3387 29.5634 33.408 29.2655 33.5373C28.9677 33.6666 28.6982 33.8533 28.4725 34.0867C28.2468 34.3202 28.0693 34.5958 27.9501 34.8978C27.8309 35.1999 27.7724 35.5225 27.7779 35.8471V66.9305C27.7724 67.2551 27.8309 67.5777 27.9501 67.8798C28.0693 68.1818 28.2468 68.4575 28.4725 68.6909C28.6982 68.9244 28.9677 69.111 29.2655 69.2403C29.5634 69.3696 29.8838 69.4389 30.2085 69.4444H69.7918C70.1165 69.4389 70.4369 69.3696 70.7348 69.2403C71.0327 69.111 71.3022 68.9244 71.5279 68.6909C71.7536 68.4575 71.9311 68.1818 72.0502 67.8798C72.1694 67.5777 72.2279 67.2551 72.2224 66.9305V35.8471C72.2279 35.5225 72.1694 35.1999 72.0502 34.8978C71.9311 34.5958 71.7536 34.3202 71.5279 34.0867C71.3022 33.8533 71.0327 33.6666 70.7348 33.5373C70.4369 33.408 70.1165 33.3387 69.7918 33.3333Z" fill="#21963B"/>
<path d="M36.1111 44.4443H38.8889V47.2221H36.1111V44.4443Z" fill="#21963B"/>
<path d="M44.4443 44.4443H47.2221V47.2221H44.4443V44.4443Z" fill="#21963B"/>
<path d="M52.7778 44.4443H55.5556V47.2221H52.7778V44.4443Z" fill="#21963B"/>
<path d="M61.1111 44.4443H63.8889V47.2221H61.1111V44.4443Z" fill="#21963B"/>
<path d="M36.1111 51.3889H38.8889V54.1667H36.1111V51.3889Z" fill="#21963B"/>
<path d="M44.4443 51.3889H47.2221V54.1667H44.4443V51.3889Z" fill="#21963B"/>
<path d="M52.7778 51.3889H55.5556V54.1667H52.7778V51.3889Z" fill="#21963B"/>
<path d="M61.1111 51.3889H63.8889V54.1667H61.1111V51.3889Z" fill="#21963B"/>
<path d="M36.1111 58.3333H38.8889V61.111H36.1111V58.3333Z" fill="#21963B"/>
<path d="M44.4443 58.3333H47.2221V61.111H44.4443V58.3333Z" fill="#21963B"/>
<path d="M52.7778 58.3333H55.5556V61.111H52.7778V58.3333Z" fill="#21963B"/>
<path d="M61.1111 58.3333H63.8889V61.111H61.1111V58.3333Z" fill="#21963B"/>
<path d="M38.8889 38.8889C39.2572 38.8889 39.6105 38.7426 39.871 38.4821C40.1314 38.2217 40.2778 37.8684 40.2778 37.5001V29.1667C40.2778 28.7984 40.1314 28.4451 39.871 28.1846C39.6105 27.9242 39.2572 27.7778 38.8889 27.7778C38.5205 27.7778 38.1673 27.9242 37.9068 28.1846C37.6463 28.4451 37.5 28.7984 37.5 29.1667V37.5001C37.5 37.8684 37.6463 38.2217 37.9068 38.4821C38.1673 38.7426 38.5205 38.8889 38.8889 38.8889Z" fill="#21963B"/>
<path d="M61.1111 38.8889C61.4794 38.8889 61.8327 38.7426 62.0932 38.4821C62.3536 38.2217 62.4999 37.8684 62.4999 37.5001V29.1667C62.4999 28.7984 62.3536 28.4451 62.0932 28.1846C61.8327 27.9242 61.4794 27.7778 61.1111 27.7778C60.7427 27.7778 60.3894 27.9242 60.129 28.1846C59.8685 28.4451 59.7222 28.7984 59.7222 29.1667V37.5001C59.7222 37.8684 59.8685 38.2217 60.129 38.4821C60.3894 38.7426 60.7427 38.8889 61.1111 38.8889Z" fill="#21963B"/>
<path d="M43.0557 33.3333H56.9446V36.111H43.0557V33.3333Z" fill="#21963B"/>
</svg>
