<svg width="100" height="100" viewBox="0 0 100 100" fill="none" xmlns="http://www.w3.org/2000/svg">
<circle cx="50" cy="50" r="50" fill="#FAD7FE"/>
<path d="M66.8334 42.3333L54.5834 30.0833H38.2501C37.1671 30.0833 36.1285 30.5135 35.3627 31.2792C34.597 32.045 34.1667 33.0836 34.1667 34.1666V66.8333C34.1667 67.9162 34.597 68.9548 35.3627 69.7206C36.1285 70.4864 37.1671 70.9166 38.2501 70.9166H62.7501C63.833 70.9166 64.8717 70.4864 65.6374 69.7206C66.4032 68.9548 66.8334 67.9162 66.8334 66.8333V42.3333ZM44.3751 64.7916H40.2917V46.4166H44.3751V64.7916ZM52.5417 64.7916H48.4584V52.5416H52.5417V64.7916ZM60.7084 64.7916H56.6251V58.6666H60.7084V64.7916ZM54.5834 44.3749H52.5417V34.1666L62.7501 44.3749H54.5834Z" fill="#DA04F2"/>
</svg>
